<svg xmlns="http://www.w3.org/2000/svg" viewBox="0 0 466.24 84.94"><defs><style>.cls-1{isolation:isolate;}.cls-2{fill:#888;}.cls-3{fill:#038844;}</style></defs><title>lb-logo-green</title><g id="Layer_2" data-name="Layer 2"><g id="Layer_1-2" data-name="Layer 1"><g class="cls-1"><path class="cls-2" d="M0,84.69V63.45H6.77a13,13,0,0,1,3.37.38,6.52,6.52,0,0,1,2.33,1.1,4.33,4.33,0,0,1,1.35,1.74A5.88,5.88,0,0,1,14.25,69,4.7,4.7,0,0,1,14,70.51a4.41,4.41,0,0,1-.74,1.35A5.25,5.25,0,0,1,12,73a6.92,6.92,0,0,1-1.76.8,6.56,6.56,0,0,1,3.51,1.67A4.39,4.39,0,0,1,15,78.64a6,6,0,0,1-.5,2.46A5.26,5.26,0,0,1,13,83a6.76,6.76,0,0,1-2.34,1.24,10.49,10.49,0,0,1-3.16.44ZM2.88,73H6.67a7.36,7.36,0,0,0,2.1-.27A4.26,4.26,0,0,0,10.25,72a2.89,2.89,0,0,0,.87-1.15,3.79,3.79,0,0,0,.28-1.47,3.25,3.25,0,0,0-1.13-2.74,5.7,5.7,0,0,0-3.5-.87H2.88Zm0,2V82.4H7.47a7,7,0,0,0,2.11-.28A3.93,3.93,0,0,0,11,81.33a3.07,3.07,0,0,0,.84-1.21,4.34,4.34,0,0,0,.27-1.55A3.19,3.19,0,0,0,11,76a5.46,5.46,0,0,0-3.52-1Z"/><path class="cls-2" d="M27.35,76.24v8.45H24.49V76.24L16.71,63.45h2.52a.9.9,0,0,1,.61.19,1.86,1.86,0,0,1,.39.47l4.86,8.25a10.28,10.28,0,0,1,.5,1q.2.46.36.9.16-.46.36-.92a8.07,8.07,0,0,1,.49-1l4.85-8.25a1.89,1.89,0,0,1,.36-.45.84.84,0,0,1,.6-.21h2.55Z"/><path class="cls-2" d="M46.94,84.69H44.07V63.45h2.87Z"/><path class="cls-2" d="M54.68,63.55a1.48,1.48,0,0,1,.42.39l12.3,16q0-.39-.06-.75c0-.24,0-.48,0-.7v-15h2.52V84.69H68.4a1.23,1.23,0,0,1-.57-.12,1.45,1.45,0,0,1-.45-.4l-12.28-16q0,.37,0,.73t0,.65V84.69H52.63V63.45h1.48A1.3,1.3,0,0,1,54.68,63.55Z"/><path class="cls-2" d="M72.58,63.45h2.3a1,1,0,0,1,.62.19,1.19,1.19,0,0,1,.36.49l6,15a10.55,10.55,0,0,1,.38,1.1q.17.59.33,1.23.13-.64.29-1.23a8.62,8.62,0,0,1,.36-1.1l6-15a1.23,1.23,0,0,1,.36-.47.92.92,0,0,1,.62-.21h2.31L83.82,84.69H81.23Z"/><path class="cls-2" d="M108.27,63.45v2.34H98.08v7.05h8.25V75.1H98.08v7.25h10.19v2.34H95.19V63.45Z"/><path class="cls-2" d="M123.28,66.77a1.16,1.16,0,0,1-.28.33.63.63,0,0,1-.39.11A1,1,0,0,1,122,67a9.22,9.22,0,0,0-.84-.56,6.89,6.89,0,0,0-1.23-.56,5.29,5.29,0,0,0-1.74-.25,5.15,5.15,0,0,0-1.7.26,3.63,3.63,0,0,0-1.24.7,2.89,2.89,0,0,0-.75,1,3.31,3.31,0,0,0-.25,1.3,2.39,2.39,0,0,0,.44,1.47,3.76,3.76,0,0,0,1.16,1,8.78,8.78,0,0,0,1.63.72l1.87.63q1,.33,1.87.73a6.6,6.6,0,0,1,1.63,1A4.7,4.7,0,0,1,124,76a5.08,5.08,0,0,1,.44,2.22,7.17,7.17,0,0,1-.47,2.62A6,6,0,0,1,122.59,83a6.49,6.49,0,0,1-2.24,1.42,8.23,8.23,0,0,1-3,.52,9.22,9.22,0,0,1-3.76-.75,8.81,8.81,0,0,1-2.9-2l.83-1.36a1.08,1.08,0,0,1,.29-.27.68.68,0,0,1,.38-.11,1.18,1.18,0,0,1,.71.33,11.74,11.74,0,0,0,1,.73,7.54,7.54,0,0,0,1.45.73,5.72,5.72,0,0,0,2.08.33,5.48,5.48,0,0,0,1.82-.28,3.87,3.87,0,0,0,1.36-.79,3.43,3.43,0,0,0,.85-1.22,4.08,4.08,0,0,0,.3-1.59,2.66,2.66,0,0,0-.44-1.58,3.62,3.62,0,0,0-1.15-1,8.08,8.08,0,0,0-1.62-.7l-1.87-.59a18.74,18.74,0,0,1-1.87-.7,6.06,6.06,0,0,1-1.62-1A4.75,4.75,0,0,1,112,71.42a6.11,6.11,0,0,1,0-4.54A5.61,5.61,0,0,1,113.31,65a6.13,6.13,0,0,1,2.05-1.3,7.51,7.51,0,0,1,2.81-.49,9,9,0,0,1,3.25.56A7.46,7.46,0,0,1,124,65.41Z"/><path class="cls-2" d="M142.57,63.45v2.42h-6.86V84.69h-2.87V65.87h-6.89V63.45Z"/><path class="cls-2" d="M163.87,74.08a12.26,12.26,0,0,1-.76,4.38A10,10,0,0,1,161,81.89a9.53,9.53,0,0,1-3.31,2.23,11.9,11.9,0,0,1-8.54,0,9.54,9.54,0,0,1-3.3-2.23,10,10,0,0,1-2.13-3.43,13.06,13.06,0,0,1,0-8.76,10.11,10.11,0,0,1,2.13-3.44,9.61,9.61,0,0,1,3.3-2.25,11.8,11.8,0,0,1,8.54,0A9.59,9.59,0,0,1,161,66.26a10.11,10.11,0,0,1,2.13,3.44A12.26,12.26,0,0,1,163.87,74.08Zm-2.95,0a10.8,10.8,0,0,0-.53-3.51,7.42,7.42,0,0,0-1.51-2.63,6.54,6.54,0,0,0-2.37-1.65,8.62,8.62,0,0,0-6.21,0,6.62,6.62,0,0,0-2.38,1.65,7.36,7.36,0,0,0-1.52,2.63,11.79,11.79,0,0,0,0,7,7.37,7.37,0,0,0,1.52,2.62,6.54,6.54,0,0,0,2.38,1.64,8.73,8.73,0,0,0,6.21,0,6.47,6.47,0,0,0,2.37-1.64,7.43,7.43,0,0,0,1.51-2.62A10.72,10.72,0,0,0,160.92,74.08Z"/><path class="cls-2" d="M170.95,75.83v8.86h-2.86V63.45h6a13.12,13.12,0,0,1,3.48.41A6.64,6.64,0,0,1,180,65a4.72,4.72,0,0,1,1.42,1.86,6.22,6.22,0,0,1,.46,2.44,6.11,6.11,0,0,1-.36,2.1,5.55,5.55,0,0,1-1,1.76,6.17,6.17,0,0,1-1.64,1.33,8.15,8.15,0,0,1-2.2.83,3,3,0,0,1,.95.9l6.19,8.43h-2.55a1.26,1.26,0,0,1-1.16-.61l-5.51-7.59A1.61,1.61,0,0,0,174,76a2,2,0,0,0-.89-.16Zm0-2.09h3a7.33,7.33,0,0,0,2.22-.3,4.51,4.51,0,0,0,1.6-.86,3.56,3.56,0,0,0,1-1.33,4.33,4.33,0,0,0,.33-1.7,3.39,3.39,0,0,0-1.25-2.86,6.06,6.06,0,0,0-3.73-1h-3.14Z"/><path class="cls-2" d="M188.32,62.34a5.58,5.58,0,0,1,.62,1.42,5.42,5.42,0,0,1,.19,1.42,5.34,5.34,0,0,1-.66,2.57A8.1,8.1,0,0,1,186.64,70l-.81-.5a.37.37,0,0,1-.16-.16.45.45,0,0,1,0-.18.48.48,0,0,1,.15-.36,6.93,6.93,0,0,0,.46-.61,6.07,6.07,0,0,0,.4-.7,4,4,0,0,0,.28-.76,3.34,3.34,0,0,0,.1-.84,3.61,3.61,0,0,0-.14-1,4.36,4.36,0,0,0-.48-1.07.6.6,0,0,1-.1-.33.55.55,0,0,1,.4-.52Z"/><path class="cls-2" d="M204,66.77a1.16,1.16,0,0,1-.28.33.63.63,0,0,1-.39.11,1,1,0,0,1-.59-.25,9.22,9.22,0,0,0-.84-.56,6.89,6.89,0,0,0-1.23-.56A5.29,5.29,0,0,0,199,65.6a5.15,5.15,0,0,0-1.7.26,3.63,3.63,0,0,0-1.24.7,2.89,2.89,0,0,0-.75,1,3.31,3.31,0,0,0-.25,1.3,2.39,2.39,0,0,0,.44,1.47,3.76,3.76,0,0,0,1.16,1,8.78,8.78,0,0,0,1.63.72l1.87.63q1,.33,1.87.73a6.6,6.6,0,0,1,1.63,1A4.7,4.7,0,0,1,204.77,76a5.08,5.08,0,0,1,.44,2.22,7.17,7.17,0,0,1-.47,2.62A6,6,0,0,1,203.35,83a6.49,6.49,0,0,1-2.24,1.42,8.23,8.23,0,0,1-3,.52,9.22,9.22,0,0,1-3.76-.75,8.81,8.81,0,0,1-2.9-2l.83-1.36a1.08,1.08,0,0,1,.29-.27.68.68,0,0,1,.38-.11,1.18,1.18,0,0,1,.71.33,11.74,11.74,0,0,0,1,.73,7.54,7.54,0,0,0,1.45.73,5.72,5.72,0,0,0,2.08.33,5.48,5.48,0,0,0,1.82-.28,3.87,3.87,0,0,0,1.36-.79,3.43,3.43,0,0,0,.85-1.22,4.08,4.08,0,0,0,.3-1.59,2.66,2.66,0,0,0-.44-1.58,3.62,3.62,0,0,0-1.15-1,8.08,8.08,0,0,0-1.62-.7l-1.87-.59a18.74,18.74,0,0,1-1.87-.7,6.06,6.06,0,0,1-1.62-1,4.75,4.75,0,0,1-1.15-1.59,6.11,6.11,0,0,1,0-4.54A5.61,5.61,0,0,1,194.06,65a6.13,6.13,0,0,1,2.05-1.3,7.51,7.51,0,0,1,2.81-.49,9,9,0,0,1,3.25.56,7.46,7.46,0,0,1,2.56,1.63Z"/><path class="cls-2" d="M214.59,84.69V63.45h6.77a13,13,0,0,1,3.37.38,6.52,6.52,0,0,1,2.33,1.1,4.33,4.33,0,0,1,1.35,1.74,5.88,5.88,0,0,1,.44,2.32,4.7,4.7,0,0,1-.24,1.51,4.41,4.41,0,0,1-.74,1.35A5.25,5.25,0,0,1,226.61,73a6.92,6.92,0,0,1-1.76.8,6.56,6.56,0,0,1,3.51,1.67,4.39,4.39,0,0,1,1.19,3.2,6,6,0,0,1-.5,2.46A5.26,5.26,0,0,1,227.6,83a6.76,6.76,0,0,1-2.34,1.24,10.49,10.49,0,0,1-3.16.44ZM217.46,73h3.79a7.36,7.36,0,0,0,2.1-.27,4.26,4.26,0,0,0,1.47-.74,2.89,2.89,0,0,0,.87-1.15,3.79,3.79,0,0,0,.28-1.47,3.25,3.25,0,0,0-1.13-2.74,5.7,5.7,0,0,0-3.5-.87h-3.9Zm0,2V82.4h4.59a7,7,0,0,0,2.11-.28,3.93,3.93,0,0,0,1.45-.79,3.07,3.07,0,0,0,.84-1.21,4.34,4.34,0,0,0,.27-1.55,3.19,3.19,0,0,0-1.16-2.6A5.46,5.46,0,0,0,222,75Z"/><path class="cls-2" d="M242,82.4a5.92,5.92,0,0,0,2.36-.44,4.94,4.94,0,0,0,1.76-1.24,5.45,5.45,0,0,0,1.1-1.91,7.55,7.55,0,0,0,.38-2.44V63.45h2.86V76.36a9.69,9.69,0,0,1-.58,3.41,7.91,7.91,0,0,1-1.67,2.72,7.65,7.65,0,0,1-2.66,1.8,9.86,9.86,0,0,1-7.05,0,7.73,7.73,0,0,1-2.67-1.8,7.84,7.84,0,0,1-1.68-2.72,9.68,9.68,0,0,1-.59-3.41V63.45h2.86V76.34a7.56,7.56,0,0,0,.38,2.45,5.43,5.43,0,0,0,1.1,1.91A5,5,0,0,0,239.65,82,5.91,5.91,0,0,0,242,82.4Z"/><path class="cls-2" d="M266.27,66.77a1.16,1.16,0,0,1-.28.33.63.63,0,0,1-.39.11A1,1,0,0,1,265,67a9.3,9.3,0,0,0-.84-.56,6.9,6.9,0,0,0-1.23-.56,5.29,5.29,0,0,0-1.74-.25,5.15,5.15,0,0,0-1.7.26,3.63,3.63,0,0,0-1.24.7,2.89,2.89,0,0,0-.75,1,3.31,3.31,0,0,0-.25,1.3,2.4,2.4,0,0,0,.44,1.47,3.76,3.76,0,0,0,1.16,1,8.77,8.77,0,0,0,1.63.72l1.87.63q1,.33,1.87.73a6.6,6.6,0,0,1,1.63,1A4.7,4.7,0,0,1,267,76a5.08,5.08,0,0,1,.44,2.22,7.16,7.16,0,0,1-.47,2.62A6,6,0,0,1,265.58,83a6.49,6.49,0,0,1-2.24,1.42,8.23,8.23,0,0,1-3,.52,9.22,9.22,0,0,1-3.76-.75,8.81,8.81,0,0,1-2.9-2l.83-1.36a1.08,1.08,0,0,1,.29-.27.68.68,0,0,1,.38-.11,1.18,1.18,0,0,1,.71.33,11.67,11.67,0,0,0,1,.73,7.53,7.53,0,0,0,1.45.73,5.72,5.72,0,0,0,2.08.33,5.48,5.48,0,0,0,1.82-.28,3.87,3.87,0,0,0,1.36-.79,3.43,3.43,0,0,0,.85-1.22,4.09,4.09,0,0,0,.3-1.59,2.66,2.66,0,0,0-.44-1.58,3.63,3.63,0,0,0-1.15-1,8.1,8.1,0,0,0-1.62-.7l-1.87-.59a18.78,18.78,0,0,1-1.87-.7,6.06,6.06,0,0,1-1.62-1A4.75,4.75,0,0,1,255,71.42a6.11,6.11,0,0,1,0-4.54A5.61,5.61,0,0,1,256.3,65a6.14,6.14,0,0,1,2.05-1.3,7.51,7.51,0,0,1,2.81-.49,9,9,0,0,1,3.25.56A7.45,7.45,0,0,1,267,65.41Z"/><path class="cls-2" d="M274.51,84.69h-2.87V63.45h2.87Z"/><path class="cls-2" d="M282.25,63.55a1.48,1.48,0,0,1,.42.39l12.3,16q0-.39-.06-.75c0-.24,0-.48,0-.7v-15h2.52V84.69H296a1.23,1.23,0,0,1-.57-.12,1.45,1.45,0,0,1-.45-.4l-12.28-16q0,.37,0,.73t0,.65V84.69H280.2V63.45h1.48A1.3,1.3,0,0,1,282.25,63.55Z"/><path class="cls-2" d="M315.69,63.45v2.34H305.49v7.05h8.25V75.1h-8.25v7.25h10.19v2.34H302.6V63.45Z"/><path class="cls-2" d="M330.7,66.77a1.16,1.16,0,0,1-.28.33.63.63,0,0,1-.39.11,1,1,0,0,1-.58-.25,9.3,9.3,0,0,0-.84-.56,6.9,6.9,0,0,0-1.23-.56,5.29,5.29,0,0,0-1.74-.25,5.15,5.15,0,0,0-1.7.26,3.63,3.63,0,0,0-1.24.7,2.89,2.89,0,0,0-.75,1,3.31,3.31,0,0,0-.25,1.3,2.4,2.4,0,0,0,.44,1.47,3.76,3.76,0,0,0,1.16,1,8.77,8.77,0,0,0,1.63.72l1.87.63q1,.33,1.87.73a6.6,6.6,0,0,1,1.63,1A4.7,4.7,0,0,1,331.43,76a5.08,5.08,0,0,1,.44,2.22,7.16,7.16,0,0,1-.47,2.62A6,6,0,0,1,330,83a6.49,6.49,0,0,1-2.24,1.42,8.23,8.23,0,0,1-3,.52,9.22,9.22,0,0,1-3.76-.75,8.81,8.81,0,0,1-2.9-2l.83-1.36a1.08,1.08,0,0,1,.29-.27.68.68,0,0,1,.38-.11,1.18,1.18,0,0,1,.71.33,11.67,11.67,0,0,0,1,.73,7.53,7.53,0,0,0,1.45.73,5.72,5.72,0,0,0,2.08.33,5.48,5.48,0,0,0,1.82-.28,3.87,3.87,0,0,0,1.36-.79,3.43,3.43,0,0,0,.85-1.22,4.09,4.09,0,0,0,.3-1.59,2.66,2.66,0,0,0-.44-1.58,3.63,3.63,0,0,0-1.15-1,8.1,8.1,0,0,0-1.62-.7l-1.87-.59a18.78,18.78,0,0,1-1.87-.7,6.06,6.06,0,0,1-1.62-1,4.75,4.75,0,0,1-1.15-1.59,6.11,6.11,0,0,1,0-4.54A5.61,5.61,0,0,1,320.72,65a6.14,6.14,0,0,1,2.05-1.3,7.51,7.51,0,0,1,2.81-.49,9,9,0,0,1,3.25.56,7.45,7.45,0,0,1,2.56,1.63Z"/><path class="cls-2" d="M346.4,66.77a1.16,1.16,0,0,1-.28.33.62.62,0,0,1-.38.11,1,1,0,0,1-.59-.25,9.14,9.14,0,0,0-.84-.56,6.88,6.88,0,0,0-1.23-.56,5.29,5.29,0,0,0-1.74-.25,5.15,5.15,0,0,0-1.7.26,3.63,3.63,0,0,0-1.24.7,2.89,2.89,0,0,0-.75,1,3.31,3.31,0,0,0-.25,1.3,2.39,2.39,0,0,0,.44,1.47,3.76,3.76,0,0,0,1.16,1,8.79,8.79,0,0,0,1.63.72l1.87.63q1,.33,1.87.73a6.6,6.6,0,0,1,1.63,1A4.7,4.7,0,0,1,347.14,76a5.08,5.08,0,0,1,.44,2.22,7.18,7.18,0,0,1-.47,2.62A6,6,0,0,1,345.71,83a6.48,6.48,0,0,1-2.24,1.42,8.24,8.24,0,0,1-3,.52,9.22,9.22,0,0,1-3.76-.75,8.82,8.82,0,0,1-2.9-2l.83-1.36a1.09,1.09,0,0,1,.29-.27.67.67,0,0,1,.38-.11,1.18,1.18,0,0,1,.71.33,11.82,11.82,0,0,0,1,.73,7.56,7.56,0,0,0,1.45.73,5.72,5.72,0,0,0,2.08.33,5.48,5.48,0,0,0,1.82-.28,3.87,3.87,0,0,0,1.36-.79,3.43,3.43,0,0,0,.85-1.22,4.08,4.08,0,0,0,.3-1.59,2.66,2.66,0,0,0-.44-1.58,3.61,3.61,0,0,0-1.15-1,8.07,8.07,0,0,0-1.62-.7l-1.87-.59a18.71,18.71,0,0,1-1.87-.7,6.06,6.06,0,0,1-1.62-1,4.74,4.74,0,0,1-1.15-1.59,6.1,6.1,0,0,1,0-4.54A5.6,5.6,0,0,1,336.43,65a6.13,6.13,0,0,1,2.05-1.3,7.52,7.52,0,0,1,2.81-.49,9,9,0,0,1,3.25.56,7.47,7.47,0,0,1,2.56,1.63Z"/><path class="cls-2" d="M375.36,74.08a12,12,0,0,1-.76,4.34,9.63,9.63,0,0,1-2.13,3.35,9.52,9.52,0,0,1-3.3,2.16,11.49,11.49,0,0,1-4.27.76H357V63.45h7.94a11.49,11.49,0,0,1,4.27.76,9.48,9.48,0,0,1,3.3,2.16,9.71,9.71,0,0,1,2.13,3.36A12,12,0,0,1,375.36,74.08Zm-2.95,0a10.66,10.66,0,0,0-.53-3.5A7.36,7.36,0,0,0,370.36,68,6.44,6.44,0,0,0,368,66.34a8.2,8.2,0,0,0-3.1-.56h-5.05V82.36h5.05a8.18,8.18,0,0,0,3.1-.56,6.48,6.48,0,0,0,2.37-1.62,7.28,7.28,0,0,0,1.51-2.6A10.66,10.66,0,0,0,372.41,74.08Z"/><path class="cls-2" d="M396.12,84.69h-2.22a1,1,0,0,1-.62-.19,1.19,1.19,0,0,1-.36-.49l-2-5.13H381.4l-2,5.13a1.16,1.16,0,0,1-.36.47,1,1,0,0,1-.62.21h-2.22l8.49-21.23h2.92ZM382.2,76.8h7.93l-3.33-8.64a16.14,16.14,0,0,1-.64-2q-.16.61-.32,1.12t-.3.9Z"/><path class="cls-2" d="M402.21,84.69h-2.87V63.45h2.87Z"/><path class="cls-2" d="M410.77,82.27H420v2.42H407.9V63.45h2.88Z"/><path class="cls-2" d="M428.17,76.24v8.45h-2.86V76.24l-7.78-12.79H420a.9.9,0,0,1,.61.19,1.86,1.86,0,0,1,.39.47l4.86,8.25a10.4,10.4,0,0,1,.5,1q.2.46.36.9.16-.46.36-.92a8.07,8.07,0,0,1,.49-1l4.85-8.25a1.89,1.89,0,0,1,.36-.45.84.84,0,0,1,.6-.21H436Z"/></g><g class="cls-1"><path class="cls-3" d="M.19,54.69V0H11.43V44.59H38.11V54.69Z"/><path class="cls-3" d="M68.21,42.44H79a17.23,17.23,0,0,1-6.59,10A19.92,19.92,0,0,1,60.3,56.06q-8.76,0-13.88-5.88T41.3,34.24q0-9.91,5-15.62t13.8-5.71q9.28,0,14.32,5.62t5,16q0,1.15,0,1.73a10.13,10.13,0,0,1-.09,1.09H52.47q.22,4.75,2.32,7.16a7.56,7.56,0,0,0,6,2.41,8.59,8.59,0,0,0,4.56-1.09A7.41,7.41,0,0,0,68.21,42.44ZM52.47,30.27H68.36a9.22,9.22,0,0,0-2.17-6.22,7.62,7.62,0,0,0-5.81-2.13,7.24,7.24,0,0,0-5.55,2.15A10,10,0,0,0,52.47,30.27Z"/><path class="cls-3" d="M109.77,49.68a13.41,13.41,0,0,1-5.34,4.81,17,17,0,0,1-7.68,1.65q-5.86,0-9-3.34t-3.17-9.5q0-5.71,3.17-8.72t10.48-4.12q1.67-.26,4.38-.59,6.86-.89,6.87-4a4,4,0,0,0-1.52-3.51q-1.52-1.06-5.08-1.06a8.28,8.28,0,0,0-5,1.3,4.35,4.35,0,0,0-1.74,3.71v.59H86v-.74a11.85,11.85,0,0,1,4.38-9.74q4.38-3.54,12.1-3.54,8.46,0,13,2.93a9.49,9.49,0,0,1,4.51,8.46V47.23a10.3,10.3,0,0,0,.52,3.77,3.62,3.62,0,0,0,1.74,1.87v1.82H111a9.39,9.39,0,0,1-.85-2.3A13.26,13.26,0,0,1,109.77,49.68Zm-.19-14.84a28.85,28.85,0,0,1-6.07,2l-3.54.78a8.69,8.69,0,0,0-4,2A4.78,4.78,0,0,0,94.85,43a4.56,4.56,0,0,0,1.45,3.54,5.56,5.56,0,0,0,3.9,1.32,9.38,9.38,0,0,0,6.88-2.47,9,9,0,0,0,2.5-6.74Z"/><path class="cls-3" d="M166.44,0V54.69H156.19V49.23a15.79,15.79,0,0,1-5.25,5.18,13.66,13.66,0,0,1-6.85,1.65A14.62,14.62,0,0,1,132,50.16q-4.62-5.9-4.62-15.47T132,19a14.37,14.37,0,0,1,11.93-6,14.56,14.56,0,0,1,7,1.63A13.57,13.57,0,0,1,156,19.36V0ZM138.2,34.24q0,6.12,2.3,9.33a7.67,7.67,0,0,0,6.64,3.21,7.55,7.55,0,0,0,6.57-3.19Q156,40.4,156,34.24q0-5.71-2.37-8.81a7.93,7.93,0,0,0-6.68-3.1,7.5,7.5,0,0,0-6.38,3.17Q138.2,28.67,138.2,34.24Z"/><path class="cls-3" d="M201,42.44h10.76a17.23,17.23,0,0,1-6.59,10,19.92,19.92,0,0,1-12.08,3.62q-8.76,0-13.88-5.88t-5.12-15.94q0-9.91,5-15.62t13.8-5.71q9.28,0,14.32,5.62t5,16q0,1.15,0,1.73a10.13,10.13,0,0,1-.09,1.09H185.25q.22,4.75,2.32,7.16a7.56,7.56,0,0,0,6,2.41,8.59,8.59,0,0,0,4.56-1.09A7.41,7.41,0,0,0,201,42.44ZM185.25,30.27h15.88A9.22,9.22,0,0,0,199,24.05a7.62,7.62,0,0,0-5.81-2.13,7.24,7.24,0,0,0-5.55,2.15A10,10,0,0,0,185.25,30.27Z"/><path class="cls-3" d="M219.43,54.69V14.35h10v6.9a16.05,16.05,0,0,1,4.94-6.1,11.52,11.52,0,0,1,6.72-1.95l1,0a5.49,5.49,0,0,1,.58.06l0,10.95h-3.6q-4.42,0-6.64,2.3t-2.23,6.83V54.69Z"/><path class="cls-3" d="M248.82,0h10.5V19.36a13.42,13.42,0,0,1,5-4.77A15.05,15.05,0,0,1,283.18,19q4.64,6,4.64,15.68t-4.64,15.47a14.67,14.67,0,0,1-12.1,5.9,13.5,13.5,0,0,1-6.77-1.63,15.66,15.66,0,0,1-5.21-5.2v5.46H248.82ZM277.1,34.24q0-5.57-2.34-8.74a7.54,7.54,0,0,0-6.42-3.17,7.88,7.88,0,0,0-6.66,3.1q-2.36,3.1-2.36,8.81,0,6.16,2.25,9.35a7.5,7.5,0,0,0,6.55,3.19,7.71,7.71,0,0,0,6.68-3.21Q277.1,40.36,277.1,34.24Z"/><path class="cls-3" d="M293.13,34.46q0-10.06,5.46-15.81t15-5.75q9.5,0,15,5.75T334,34.46q0,10.09-5.47,15.85t-15,5.75q-9.54,0-15-5.75T293.13,34.46Zm10.95,0q0,6,2.47,9.28a9.12,9.12,0,0,0,14,0Q323,40.48,323,34.46t-2.45-9.22a8.22,8.22,0,0,0-7-3.25,8.31,8.31,0,0,0-7,3.25Q304.08,28.49,304.08,34.46Z"/><path class="cls-3" d="M364.49,49.68a13.4,13.4,0,0,1-5.34,4.81,17,17,0,0,1-7.68,1.65q-5.86,0-9-3.34t-3.17-9.5q0-5.71,3.17-8.72t10.48-4.12q1.67-.26,4.38-.59,6.87-.89,6.87-4a4,4,0,0,0-1.52-3.51q-1.52-1.06-5.08-1.06a8.29,8.29,0,0,0-5,1.3,4.35,4.35,0,0,0-1.74,3.71v.59H340.7v-.74a11.85,11.85,0,0,1,4.38-9.74q4.38-3.54,12.1-3.54,8.46,0,13,2.93a9.49,9.49,0,0,1,4.51,8.46V47.23a10.3,10.3,0,0,0,.52,3.77,3.63,3.63,0,0,0,1.74,1.87v1.82H365.68a9.41,9.41,0,0,1-.85-2.3A13.26,13.26,0,0,1,364.49,49.68Zm-.19-14.84a28.85,28.85,0,0,1-6.07,2l-3.54.78a8.69,8.69,0,0,0-4,2A4.78,4.78,0,0,0,349.57,43,4.56,4.56,0,0,0,351,46.54a5.56,5.56,0,0,0,3.9,1.32,9.38,9.38,0,0,0,6.88-2.47,9,9,0,0,0,2.5-6.74Z"/><path class="cls-3" d="M384.08,54.69V14.35h10v6.9a16.06,16.06,0,0,1,4.94-6.1,11.52,11.52,0,0,1,6.72-1.95l1,0a5.49,5.49,0,0,1,.58.06l0,10.95h-3.6q-4.42,0-6.64,2.3t-2.23,6.83V54.69Z"/><path class="cls-3" d="M450.32,0V54.69H440.08V49.23a15.79,15.79,0,0,1-5.25,5.18A13.66,13.66,0,0,1,428,56.06a14.62,14.62,0,0,1-12.08-5.9q-4.62-5.9-4.62-15.47T415.9,19a14.37,14.37,0,0,1,11.93-6,14.56,14.56,0,0,1,7,1.63,13.57,13.57,0,0,1,5.07,4.75V0ZM422.08,34.24q0,6.12,2.3,9.33A7.67,7.67,0,0,0,431,46.78a7.55,7.55,0,0,0,6.57-3.19q2.26-3.19,2.26-9.35,0-5.71-2.37-8.81a7.93,7.93,0,0,0-6.68-3.1,7.5,7.5,0,0,0-6.38,3.17Q422.08,28.67,422.08,34.24Z"/></g><g class="cls-1"><path class="cls-3" d="M460.41,0a5.75,5.75,0,0,1,4.17,1.75,5.58,5.58,0,0,1,1.23,1.86,5.88,5.88,0,0,1,.42,2.22,5.82,5.82,0,0,1-.44,2.25,5.45,5.45,0,0,1-1.27,1.86,5.89,5.89,0,0,1-1.9,1.26,5.77,5.77,0,0,1-2.21.44,5.63,5.63,0,0,1-2.23-.45,5.87,5.87,0,0,1-1.9-1.3,5.76,5.76,0,0,1-1.45-5.6,6.21,6.21,0,0,1,.63-1.47A5.65,5.65,0,0,1,460.41,0Zm0,1a4.83,4.83,0,0,0-1.84.35,4.62,4.62,0,0,0-1.53,1A5,5,0,0,0,456,4a4.7,4.7,0,0,0-.38,1.86,4.76,4.76,0,0,0,.36,1.83,4.7,4.7,0,0,0,1,1.55,4.84,4.84,0,0,0,1.58,1.09,4.72,4.72,0,0,0,3.67,0,5.28,5.28,0,0,0,1.61-1.05,4.63,4.63,0,0,0,1.05-1.53,4.53,4.53,0,0,0,.38-1.81A5.1,5.1,0,0,0,464.93,4a4.65,4.65,0,0,0-1-1.57,4.72,4.72,0,0,0-1.58-1.09A4.85,4.85,0,0,0,460.43,1ZM458,2.48h2.53a3.74,3.74,0,0,1,2.07.46,1.56,1.56,0,0,1,.69,1.39,1.66,1.66,0,0,1-.37,1.09,1.89,1.89,0,0,1-1,.62l1.45,2.88h-1.75l-1.23-2.64h-.78V8.93H458Zm1.56,1V5.34h.78a1.84,1.84,0,0,0,1-.22.77.77,0,0,0,.32-.69.82.82,0,0,0-.34-.73,1.93,1.93,0,0,0-1.07-.23Z"/></g></g></g></svg>